<svg width="45" height="2927" viewBox="0 0 45 2927" fill="none" xmlns="http://www.w3.org/2000/svg">
<line x1="23" y1="19.8359" x2="22.9999" y2="2905" stroke="white" stroke-width="2"/>
<path d="M22.5 0.5C34.6541 0.5 44.4999 10.271 44.5 22.3154C44.5 34.36 34.6542 44.1309 22.5 44.1309C10.3458 44.1309 0.5 34.36 0.5 22.3154C0.500113 10.271 10.3459 0.5 22.5 0.5Z" fill="white" stroke="white"/>
<path d="M22.5 234.5C34.6541 234.5 44.4999 244.271 44.5 256.315C44.5 268.36 34.6542 278.131 22.5 278.131C10.3458 278.131 0.5 268.36 0.5 256.315C0.500113 244.271 10.3459 234.5 22.5 234.5Z" fill="white" stroke="white"/>
<path d="M22.5 484.5C34.6541 484.5 44.4999 494.271 44.5 506.315C44.5 518.36 34.6542 528.131 22.5 528.131C10.3458 528.131 0.5 518.36 0.5 506.315C0.500113 494.271 10.3459 484.5 22.5 484.5Z" fill="white" stroke="white"/>
<path d="M22.5 726.5C34.6541 726.5 44.4999 736.271 44.5 748.315C44.5 760.36 34.6542 770.131 22.5 770.131C10.3458 770.131 0.5 760.36 0.5 748.315C0.500113 736.271 10.3459 726.5 22.5 726.5Z" fill="white" stroke="white"/>
<path d="M22.5 966.5C34.6541 966.5 44.4999 976.271 44.5 988.315C44.5 1000.36 34.6542 1010.13 22.5 1010.13C10.3458 1010.13 0.5 1000.36 0.5 988.315C0.500113 976.271 10.3459 966.5 22.5 966.5Z" fill="white" stroke="white"/>
<path d="M22.5 1206.5C34.6541 1206.5 44.4999 1216.27 44.5 1228.32C44.5 1240.36 34.6542 1250.13 22.5 1250.13C10.3458 1250.13 0.5 1240.36 0.5 1228.32C0.500113 1216.27 10.3459 1206.5 22.5 1206.5Z" fill="white" stroke="white"/>
<path d="M22.5 1448.5C34.6541 1448.5 44.4999 1458.27 44.5 1470.32C44.5 1482.36 34.6542 1492.13 22.5 1492.13C10.3458 1492.13 0.5 1482.36 0.5 1470.32C0.500113 1458.27 10.3459 1448.5 22.5 1448.5Z" fill="white" stroke="white"/>
<path d="M22.5 1692.5C34.6541 1692.5 44.4999 1702.27 44.5 1714.32C44.5 1726.36 34.6542 1736.13 22.5 1736.13C10.3458 1736.13 0.5 1726.36 0.5 1714.32C0.500113 1702.27 10.3459 1692.5 22.5 1692.5Z" fill="white" stroke="white"/>
<path d="M22.5 1934.5C34.6541 1934.5 44.4999 1944.27 44.5 1956.32C44.5 1968.36 34.6542 1978.13 22.5 1978.13C10.3458 1978.13 0.5 1968.36 0.5 1956.32C0.500113 1944.27 10.3459 1934.5 22.5 1934.5Z" fill="white" stroke="white"/>
<path d="M22.5 2243.5C34.6541 2243.5 44.4999 2253.27 44.5 2265.32C44.5 2277.36 34.6542 2287.13 22.5 2287.13C10.3458 2287.13 0.5 2277.36 0.5 2265.32C0.500113 2253.27 10.3459 2243.5 22.5 2243.5Z" fill="white" stroke="white"/>
<path d="M22.5 2588.5C34.6541 2588.5 44.4999 2598.27 44.5 2610.32C44.5 2622.36 34.6542 2632.13 22.5 2632.13C10.3458 2632.13 0.5 2622.36 0.5 2610.32C0.500113 2598.27 10.3459 2588.5 22.5 2588.5Z" fill="white" stroke="white"/>
<path d="M22.5 2882.5C34.6541 2882.5 44.4999 2892.27 44.5 2904.32C44.5 2916.36 34.6542 2926.13 22.5 2926.13C10.3458 2926.13 0.5 2916.36 0.5 2904.32C0.500113 2892.27 10.3459 2882.5 22.5 2882.5Z" fill="white" stroke="white"/>
</svg>
