<svg width="45" height="788" viewBox="0 0 45 788" fill="none" xmlns="http://www.w3.org/2000/svg">
<line x1="23" y1="22" x2="23" y2="765" stroke="white" stroke-width="2"/>
<path d="M22.5 0.5C34.6541 0.5 44.4999 10.271 44.5 22.3154C44.5 34.36 34.6542 44.1309 22.5 44.1309C10.3458 44.1309 0.5 34.36 0.5 22.3154C0.500113 10.271 10.3459 0.5 22.5 0.5Z" fill="white" stroke="white"/>
<path d="M22.5 384.5C34.6541 384.5 44.4999 394.271 44.5 406.315C44.5 418.36 34.6542 428.131 22.5 428.131C10.3458 428.131 0.5 418.36 0.5 406.315C0.500113 394.271 10.3459 384.5 22.5 384.5Z" fill="white" stroke="white"/>
<path d="M22.5 743.5C34.6541 743.5 44.4999 753.271 44.5 765.315C44.5 777.36 34.6542 787.131 22.5 787.131C10.3458 787.131 0.5 777.36 0.5 765.315C0.500113 753.271 10.3459 743.5 22.5 743.5Z" fill="white" stroke="white"/>
</svg>
